<svg height="75" viewBox="0 0 535 75" width="535" xmlns="http://www.w3.org/2000/svg"><g fill="none"><path d="m97.3 74.3h-15c-11.2 0-20.3-9.1-20.3-20.2v-35.3h35.3c11.2 0 20.2 9.1 20.2 20.2v15c0 11.2-9 20.3-20.2 20.3" fill="#2d79be"/><g fill="#201d1e"><path d="m20.2 0h15c11.2 0 20.2 9.1 20.2 20.2v35.2h-35.3c-11 .1-20.1-9-20.1-20.2v-15c0-11.1 9.1-20.2 20.2-20.2"/><path d="m157.2 27-6.3 18h12.3zm11.6 35-2.9-8.8h-17.6l-3 8.8h-10.1l18-49.6h7.6l18.1 49.6z"/><path d="m205.3 62v-21.9c0-3.9-2.2-6.6-6-6.6-3.9 0-6.1 2.6-6.1 6.6v21.9h-9.1v-36.3h8.8v3.3c2.4-2.5 5.4-3.8 9.1-3.8 4 0 7 1.2 9.2 3.8 2 2.4 3.1 5.6 3.1 9.7v23.3z"/><path d="m241.3 46.7h-7.2c-3.4 0-5.1 1.4-5.1 4.1 0 2.8 1.7 4.2 5.2 4.2 3.1 0 5.1-.8 6.2-2.3.6-.8.8-2.2.8-4zm.2 15.3v-3.1c-2.3 2.3-5.3 3.5-8.9 3.5-3.8 0-6.7-1-8.8-2.9-2.3-2-3.4-4.8-3.4-8.5 0-3.5 1.2-6.1 3.7-8 2.2-1.7 5.1-2.5 8.7-2.5h8.6v-1.8c0-3.8-2.2-5.7-6.8-5.7-2.9 0-5.2 1-7 3l-5.8-5.6c1.7-2 3.8-3.3 5.9-4 1.9-.6 4.2-1 7.2-1 10.3 0 15.5 4.2 15.5 12.8v23.8z"/><path d="m278.2 36.9c-.9-2.3-2.7-3.5-5.4-3.5s-4.5 1.2-5.4 3.5c-.5 1.3-.8 3.6-.8 6.9s.3 5.6.8 6.9c.9 2.4 2.7 3.5 5.4 3.5 2.6 0 4.5-1.2 5.4-3.5.6-1.5.8-3.8.8-7 .1-3-.2-5.3-.8-6.8m1.1 25.1v-3.4c-2.3 2.6-5.3 3.8-9 3.8-6.9 0-10.9-3.4-12.1-10.2-.4-1.9-.5-4.7-.5-8.4 0-3.6.1-6.4.5-8.3 1.2-6.8 5.1-10.2 12-10.2 3.7 0 6.7 1.2 8.8 3.6v-16.5h9v49.6z"/><path d="m314.7 36.9c-.9-2.3-2.7-3.4-5.4-3.4-2.6 0-4.4 1.2-5.3 3.5-.6 1.5-1 3.8-1 6.9s.3 5.4.9 7c1 2.3 2.8 3.5 5.4 3.5s4.5-1.2 5.4-3.5c.6-1.5 1-3.8 1-7s-.4-5.5-1-7m5.9 21c-2.9 3-6.6 4.5-11.3 4.5s-8.4-1.5-11.2-4.5c-2.7-2.9-4.1-7.5-4.1-14.1 0-12.3 5.1-18.5 15.3-18.5s15.4 6.2 15.4 18.5c0 6.6-1.4 11.3-4.1 14.1"/><path d="m340.9 62c-6.3 0-10.6-4-10.6-10.4v-39.2h9v38.6c0 2.2 1 3.3 3.2 3.3h3.5v7.7z"/><path d="m371.4 62v-3.3c-2.4 2.5-5.4 3.8-9 3.8-4 0-7-1.2-9.2-3.8-2-2.4-3.1-5.6-3.1-9.7v-23.3h9v21.9c0 3.9 2.2 6.6 6 6.6 3.9 0 6-2.6 6-6.6v-21.9h9v36.3z"/><path d="m409.5 36.9c-.9-2.3-2.6-3.5-5.4-3.5s-4.5 1.2-5.4 3.5c-.5 1.3-.8 3.6-.8 6.9s.3 5.6.8 6.9c.9 2.4 2.7 3.5 5.4 3.5s4.5-1.2 5.4-3.5c.5-1.3.8-3.6.8-6.9s-.3-5.6-.8-6.9m9.4 15.3c-1.2 6.8-5.1 10.2-12 10.2-3.7 0-6.8-1.2-9-3.8v3.4h-8.9v-49.6h9v16.5c2.1-2.4 5.1-3.6 8.8-3.6 6.9 0 10.9 3.4 12 10.2.4 1.9.5 4.7.5 8.3.1 3.7-.1 6.5-.4 8.4"/><path d="m445.6 46.7h-7.2c-3.4 0-5.1 1.4-5.1 4.1 0 2.8 1.7 4.2 5.2 4.2 3.1 0 5.1-.8 6.2-2.3.6-.8.8-2.2.8-4v-2zm.2 15.3v-3.1c-2.3 2.3-5.3 3.5-8.9 3.5-3.8 0-6.7-1-8.8-2.9-2.3-2-3.4-4.8-3.4-8.5 0-3.5 1.2-6.1 3.7-8 2.2-1.7 5.1-2.5 8.7-2.5h8.6v-1.8c0-3.8-2.2-5.7-6.8-5.7-2.9 0-5.2 1-7 3l-5.8-5.6c1.7-2 3.8-3.3 5.9-4 1.9-.6 4.2-1 7.2-1 10.3 0 15.5 4.2 15.5 12.8v23.8z"/><path d="m484.2 62v-21.9c0-3.9-2.2-6.6-6-6.6-3.9 0-6.1 2.6-6.1 6.6v21.9h-9v-36.3h8.8v3.3c2.4-2.5 5.4-3.8 9-3.8 4 0 7 1.2 9.2 3.8 2 2.4 3.1 5.6 3.1 9.7v23.3z"/><path d="m523.6 62-8.9-15.1-3.9 4.3v10.8h-9v-49.6h9v28.1l12.1-14.8h10.9l-13 14.6 14 21.7z"/></g></g></svg>