<?xml version="1.0" encoding="UTF-8" standalone="no"?>
<!-- Created with Inkscape (http://www.inkscape.org/) -->

<svg
   width="132.29161mm"
   height="18.739834mm"
   viewBox="0 0 132.29161 18.739834"
   version="1.1"
   id="svg1"
   inkscape:version="1.4 (86a8ad7, 2024-10-11)"
   sodipodi:docname="Pull&amp;Bear_2023.svg"
   xmlns:inkscape="http://www.inkscape.org/namespaces/inkscape"
   xmlns:sodipodi="http://sodipodi.sourceforge.net/DTD/sodipodi-0.dtd"
   xmlns="http://www.w3.org/2000/svg"
   xmlns:svg="http://www.w3.org/2000/svg">
  <sodipodi:namedview
     id="namedview1"
     pagecolor="#ffffff"
     bordercolor="#000000"
     borderopacity="0.25"
     inkscape:showpageshadow="2"
     inkscape:pageopacity="0.0"
     inkscape:pagecheckerboard="0"
     inkscape:deskcolor="#d1d1d1"
     inkscape:document-units="mm"
     inkscape:zoom="1.9729351"
     inkscape:cx="253.68296"
     inkscape:cy="78.816583"
     inkscape:window-width="1920"
     inkscape:window-height="1001"
     inkscape:window-x="-9"
     inkscape:window-y="-9"
     inkscape:window-maximized="1"
     inkscape:current-layer="layer1" />
  <defs
     id="defs1" />
  <g
     inkscape:label="Layer 1"
     inkscape:groupmode="layer"
     id="layer1"
     transform="translate(-37.042064,-129.75541)">
    <path
       d="m 166.18171,139.51385 c -0.034,-0.0128 -0.0635,-0.0359 -0.0833,-0.0662 -0.0203,-0.0302 -0.0308,-0.0661 -0.0296,-0.10248 0.002,-0.0364 0.0137,-0.0715 0.0357,-0.10036 0.0225,-0.0289 0.0529,-0.0501 0.0877,-0.0607 0.33029,-0.089 0.65088,-0.20964 0.95735,-0.36036 0.46479,-0.22393 0.87841,-0.54072 1.21576,-0.93085 0.32499,-0.38554 0.5715,-0.83096 0.72584,-1.31118 0.16757,-0.53014 0.24914,-1.08369 0.24209,-1.63962 4.4e-4,-0.319 -0.026,-0.63751 -0.0785,-0.95214 -0.0512,-0.30396 -0.13009,-0.60264 -0.23548,-0.89227 -0.10584,-0.29258 -0.23945,-0.57445 -0.39864,-0.84176 -0.16933,-0.28195 -0.36248,-0.54888 -0.57723,-0.79788 -0.23284,-0.26769 -0.50138,-0.50214 -0.79772,-0.69681 -0.3369,-0.21826 -0.69629,-0.39971 -1.072,-0.54122 -0.42465,-0.16034 -0.8643,-0.27664 -1.31233,-0.34708 -0.50535,-0.0807 -1.01643,-0.11986 -1.52796,-0.11702 h -6.91487 v 18.30718 h 3.81352 v -7.16887 h 2.26086 c 0.8299,0 1.45035,0.19549 1.86177,0.58645 0.41099,0.39093 0.61869,0.97737 0.62222,1.7593 v 3.58245 c 0,1.07447 0.3391,1.24067 0.3391,1.24067 h 3.84571 c 0,0 -0.33778,-0.65026 -0.33778,-2.73803 v -2.1343 c 0.003,-0.4367 -0.0644,-0.87101 -0.20064,-1.28592 -0.13627,-0.4064 -0.34044,-0.78678 -0.6037,-1.125 -0.27957,-0.35802 -0.62485,-0.65912 -1.01731,-0.88697 -0.25974,-0.15077 -0.5327,-0.27764 -0.81536,-0.37897 m -1.55442,-2.19815 c -0.21167,0.24742 -0.48154,0.43766 -0.78581,0.55319 -0.3519,0.1289 -0.72408,0.19117 -1.09846,0.18354 h -2.52676 v -5.61039 h 2.45356 c 0.39996,-0.01 0.79816,0.0599 1.17166,0.20479 0.31662,0.12956 0.59266,0.34285 0.79771,0.61701 0.20814,0.28028 0.36425,0.59553 0.46126,0.93084 0.10672,0.37086 0.15831,0.75521 0.15434,1.14097 0.005,0.37901 -0.0481,0.75657 -0.15699,1.11967 -0.097,0.31746 -0.25796,0.61194 -0.47184,0.86571"
       id="path2"
       style="fill:#000000;stroke-width:0.440971"
       inkscape:connector-curvature="0" />
    <path
       d="m 150.08848,148.06304 -0.82285,-3.96543 h -4.90184 l -0.84842,3.97077 h -4.13675 l 5.11041,-18.30587 h 4.62226 l 5.11041,18.30587 z m -3.12207,-14.6476 c -0.007,-0.039 -0.0278,-0.0743 -0.0578,-0.0997 -0.0304,-0.0254 -0.0688,-0.0394 -0.10848,-0.0394 -0.0397,0 -0.0781,0.0139 -0.10848,0.0394 -0.0305,0.0255 -0.0507,0.0607 -0.0578,0.0997 -0.13317,0.73404 -0.33778,1.77659 -0.49874,2.55719 -0.27648,1.34042 -0.62353,3.21807 -1.04245,4.93614 h 3.41885 c -0.39908,-1.59574 -0.74216,-3.41488 -1.01864,-4.7553 -0.16493,-0.79789 -0.38056,-1.94812 -0.53181,-2.73803"
       id="path4"
       style="fill:#000000;stroke-width:0.440971"
       inkscape:connector-curvature="0" />
    <path
       d="m 126.41055,129.75719 v 18.30585 h 11.02251 v -2.99203 h -7.34173 v -4.79521 h 6.51182 v -3.14491 h -6.51182 v -4.38167 h 7.1649 v -2.99203 z"
       id="path6"
       style="fill:#000000;stroke-width:0.440971"
       inkscape:connector-curvature="0" />
    <path
       d="m 117.65904,129.75719 c 0.97719,-0.02 1.95085,0.12838 2.87778,0.43883 0.8127,0.29256 1.42477,0.69149 1.83488,1.19681 0.38408,0.46053 0.68614,0.98367 0.89252,1.54654 0.18785,0.54306 0.28134,1.11424 0.27649,1.68883 0.0132,0.87123 -0.27076,1.72098 -0.80433,2.4096 -0.42995,0.55849 -1.0429,0.98138 -1.83797,1.26858 -0.0335,0.0133 -0.0622,0.0365 -0.082,0.0666 -0.0199,0.0301 -0.0296,0.0655 -0.0286,0.10156 0.001,0.036 0.0128,0.0708 0.0344,0.0998 0.0216,0.029 0.0516,0.0505 0.0855,0.0619 0.80477,0.20937 1.5262,0.65942 2.06815,1.28988 0.64426,0.76508 0.96705,1.74911 0.96793,2.95212 0.004,0.62812 -0.1023,1.25209 -0.31529,1.84308 -0.22358,0.60123 -0.55563,1.1561 -0.97984,1.63698 -0.44362,0.51598 -1.06803,0.92863 -1.87368,1.23802 -0.91017,0.32707 -1.87237,0.48437 -2.83942,0.46412 h -6.64896 v -18.3032 z m -2.68992,2.70478 v 4.89628 h 2.01038 c 1.65982,0 2.48928,-0.72738 2.48928,-2.44814 0,-1.72075 -0.82946,-2.44814 -2.48928,-2.44814 z m 0,7.56649 v 5.3511 h 2.31245 c 0.90575,0 1.56368,-0.27442 1.97335,-0.82317 0.41098,-0.54786 0.61559,-1.10502 0.61559,-1.93749 0,-0.83246 -0.20858,-1.36172 -0.62882,-1.85239 -0.42025,-0.49071 -1.04687,-0.73805 -1.88427,-0.73805 z"
       id="path8"
       style="fill:#000000;stroke-width:0.440971"
       inkscape:connector-curvature="0" />
    <path
       d="m 40.857223,141.17873 v 6.88431 h -3.815159 v -18.30585 h 6.958784 c 1.13916,0 2.132094,0.17198 2.978714,0.51596 0.84662,0.34397 1.496038,0.7992 1.948165,1.36569 0.434312,0.53419 0.770641,1.14107 0.993331,1.79257 0.209638,0.62758 0.315647,1.28512 0.313839,1.9468 0.02342,1.50291 -0.524579,2.95869 -1.533256,4.07315 -1.023052,1.15248 -2.640048,1.7287 -4.851076,1.7287 z m 0,-2.39363 h 2.239369 c 2.010651,0 3.015977,-1.2061 3.015977,-3.24863 0,-2.04258 -0.980058,-3.09046 -2.941496,-3.09046 h -2.31385 z"
       id="path10"
       style="fill:#000000;stroke-width:0.440971"
       inkscape:connector-curvature="0" />
    <path
       d="m 68.221615,129.75719 v 18.30585 h 11.40558 v -3.37766 h -7.433534 v -14.92819 z"
       id="path12"
       style="fill:#000000;stroke-width:0.440971"
       inkscape:connector-curvature="0" />
    <path
       d="m 82.278621,129.75719 v 18.30585 h 11.407036 v -3.37766 h -7.43477 v -14.92819 z"
       id="path14"
       style="fill:#000000;stroke-width:0.440971"
       inkscape:connector-curvature="0" />
    <path
       d="m 103.74949,145.35826 h -2.01038 c -1.65982,0 -2.489724,-0.72738 -2.489724,-2.44814 0,-1.72076 0.829904,-2.44814 2.489724,-2.44814 h 2.01038 z m 3.68079,-7.56649 v -2.54255 h -3.68079 v 2.54255 h -2.39359 c -0.83784,0 -1.466224,-0.24602 -1.885587,-0.73805 -0.418923,-0.49067 -0.628825,-1.01993 -0.628825,-1.85239 0,-0.83242 0.205933,-1.38963 0.616919,-1.93749 0.410984,-0.54787 1.063623,-0.82312 1.973343,-0.82312 h 2.31113 v -2.68353 h -2.96553 c -0.967049,-0.0201 -1.929688,0.1372 -2.840293,0.4641 -0.804772,0.3094 -1.429187,0.72207 -1.872363,1.23803 -0.424213,0.48138 -0.756706,1.03612 -0.981601,1.63699 -0.211225,0.59126 -0.317499,1.21505 -0.31353,1.84308 0,1.2039 0.322791,2.18793 0.967931,2.95213 0.543276,0.63006 1.266028,1.07879 2.071681,1.28587 0.0344,0.0109 0.06482,0.0322 0.08643,0.0609 0.02205,0.0288 0.0344,0.0635 0.03528,0.0996 0.0013,0.036 -0.0088,0.0716 -0.02867,0.10164 -0.01985,0.0301 -0.0485,0.0533 -0.08202,0.0664 -0.798157,0.28725 -1.411107,0.71009 -1.839289,1.26862 -0.53137,0.68946 -0.81271,1.53913 -0.797717,2.40956 -0.0049,0.57459 0.08863,1.14577 0.276489,1.68883 0.205933,0.56356 0.507998,1.08721 0.892084,1.5479 0.409662,0.50707 1.021288,0.90601 1.835321,1.19679 0.926921,0.31071 1.900137,0.45918 2.877767,0.43881 h 6.37071 v -7.59307 h 1.29513 v -2.67154 z"
       id="path16"
       style="fill:#000000;stroke-width:0.440971"
       inkscape:connector-curvature="0" />
    <path
       d="m 61.42105,129.75719 v 12.68484 c 0,0.9282 -0.21365,1.65425 -0.640951,2.17822 -0.427301,0.52392 -1.043425,0.7859 -1.848418,0.7859 h -0.265949 c -0.804949,0 -1.420632,-0.26198 -1.847051,-0.7859 -0.426419,-0.52397 -0.64051,-1.25002 -0.642318,-2.17822 v -12.68484 h -3.994667 v 12.50003 c 0,1.94322 0.57626,3.4685 1.728738,4.57578 1.152477,1.10727 2.736224,1.66136 4.751329,1.66224 h 0.26595 c 2.015942,0 3.599733,-0.55408 4.751329,-1.66224 1.151595,-1.10817 1.727856,-2.63344 1.728738,-4.57578 v -12.50003 z"
       id="path18"
       style="fill:#000000;stroke-width:0.440971"
       inkscape:connector-curvature="0" />
  </g>
</svg>
