<svg width="188" height="24" viewBox="0 0 188 24" fill="none" xmlns="http://www.w3.org/2000/svg">
<g clip-path="url(#clip0_2916_1478)">
<path d="M3.08636 6.57757L0 23.7699C2.71058 23.7699 20.568 23.7699 20.5288 23.7699H21.6918C28.0853 23.7367 31.7701 22.2098 32.4379 17.2956C32.885 13.9802 30.1441 11.8473 27.9037 11.4015C30.169 10.9631 32.9206 10.1453 33.494 6.69361C33.9232 4.10389 31.6739 0.495605 25.5493 0.495605H10.3294C6.15669 0.495605 3.54406 3.52922 3.08102 6.58678" fill="#FDB913"/>
<path d="M15.9875 6.6676C15.211 7.66407 10.6447 12.978 7.32499 17.0946C8.03737 13.6889 9.28402 6.39868 10.3971 4.90122C11.0506 4.02456 11.9865 3.41939 13.0347 3.19562C13.0347 3.19562 7.2306 1.47344 5.55474 8.74895C4.94032 11.4234 3.04719 20.9055 3.04719 20.9166C3.08281 20.9958 8.33656 21.4526 10.8833 18.3821C12.0213 17.008 17.6633 9.78042 19.2127 7.69907C22.4718 3.3006 24.4932 3.01143 24.4932 3.01143C24.4932 3.01143 19.3018 2.42386 15.9875 6.67681" fill="white"/>
<path d="M52.8154 23.7678L64.8421 0.486108H60.6444L51.8252 18.7486L49.5349 0.486108H44.787L48.86 23.7678H52.8154ZM71.4155 14.6153L70.1403 21.9388C69.2625 22.0035 68.3816 22.0121 67.5028 21.9645C65.4618 21.9203 63.6791 21.0289 64.0015 18.8333C64.4431 15.8144 67.2071 14.945 71.4155 14.608V14.6153ZM75.9159 12.4898C76.6781 8.17421 73.5277 6.54228 69.704 6.54228C67.2107 6.54228 65.8091 6.87751 64.3274 7.52218L63.0807 10.1008C64.9062 9.28856 66.8616 9.04912 68.5019 9.04912C70.7744 9.04912 72.2935 9.7343 71.9124 11.9096L71.7521 12.8048C65.558 13.1731 60.5625 14.6669 59.9142 18.8388C59.4458 21.8467 62.4342 23.9962 67.3941 23.9962C69.9712 23.9962 72.2027 23.8672 73.9177 23.7309L75.9159 12.4898ZM87.0877 14.6798L95.1447 7.01197H90.6923L83.1038 14.6688L85.622 0.486108H81.4332L77.2926 23.7678H81.5009L83.0218 15.1329L88.0476 23.7457H92.9755L87.0877 14.6798ZM98.5925 23.7457L101.561 7.01197H97.5952L94.63 23.7457H98.5925ZM116.804 1.16945C117.301 0.646353 118.16 0.38112 118.16 0.38112C113.25 -0.806908 107.91 0.841595 107.068 5.00061L106.712 7.01565H103.983L103.556 9.43776H106.281L103.745 23.7493H107.925L110.461 9.43776H113.631L114.072 7.01565H110.895L111.13 5.74843C111.513 3.60445 112.217 1.59125 116.202 2.27644C116.307 1.85838 116.518 1.47687 116.813 1.1713L116.804 1.16945ZM129.581 6.61044C129.153 9.00491 127.39 10.4305 122.753 10.2942C121.417 10.2629 121.093 10.1819 121.093 10.1819L122.395 2.8769C123.314 2.49906 124.297 2.31616 125.285 2.33906C128.436 2.33906 130.081 3.76285 129.581 6.60859V6.61044ZM120.765 12.4051L122.047 12.359C127.258 12.1748 128.795 14.4035 128.206 17.3506C127.636 20.1797 125.339 21.3604 122.22 21.3604C120.924 21.3604 120.245 21.3604 119.12 21.3015L120.765 12.4051ZM134.063 6.39493C134.507 3.7297 132.081 0.0127386 125.77 0.0127386C122.617 0.0127386 118.345 0.777128 117.891 3.30606L114.3 23.7512C116.468 24.0164 118.594 24.0109 121.898 23.9888C128.487 23.9538 132.286 22.3808 132.975 17.3211C133.437 13.9136 130.61 11.7162 128.3 11.2428C130.635 10.7916 133.474 9.95349 134.063 6.39862V6.39493ZM145.764 14.6153L144.482 21.9388C143.604 22.0036 142.723 22.0122 141.844 21.9645C139.802 21.9203 138.022 21.0289 138.35 18.8333C138.785 15.8144 141.556 14.945 145.764 14.608V14.6153ZM150.257 12.4898C151.023 8.18711 147.875 6.55518 144.046 6.55518C141.552 6.55518 140.127 6.88488 138.64 7.5277L137.42 10.1064C139.251 9.30514 141.207 9.04912 142.847 9.04912C145.114 9.04912 146.644 9.7343 146.256 11.9096L146.095 12.8048C139.907 13.1731 134.908 14.6669 134.259 18.8388C133.796 21.8467 136.783 23.9962 141.739 23.9962C144.322 23.9962 146.548 23.8672 148.265 23.7309L150.257 12.4898ZM168.574 11.8525C169.055 9.14674 167.575 6.72279 161.778 6.72279C158.507 6.72279 156.094 7.27536 154.12 8.01212L151.312 23.7549H155.561L158.044 9.70483C159.039 9.29649 160.104 9.1004 161.175 9.12832C163.944 9.12832 164.633 10.5116 164.391 11.8801L162.288 23.7678H166.416L168.574 11.8525ZM175.47 14.6153L175.394 14.5969L177.898 0.486108H173.703L169.57 23.7383H173.782L175.288 15.2342H175.354L180.321 23.7678H185.247L179.37 14.7093L187.429 7.04144H182.968L175.47 14.6153Z" fill="black"/>
</g>
<defs>
<clipPath id="clip0_2916_1478">
<rect width="187.429" height="24" fill="white"/>
</clipPath>
</defs>
</svg>
